<svg id="圖層_1" data-name="圖層 1" xmlns="http://www.w3.org/2000/svg" viewBox="0 0 16 16"><defs><style>.cls-1{fill:#221d66;}.cls-2{fill:#fff;}</style></defs><title>favicon</title><circle class="cls-1" cx="8" cy="8" r="8"/><path class="cls-2" d="M5.63,5A.39.39,0,0,1,6,5.45c-.13.7-.23,1.19-.26,1.48L5.61,8.51a.2.2,0,0,0,.2.23H9c.1,0,.21-.08.21-.15.15-.83.57-4.07,1.19-4.88a3.36,3.36,0,0,1,2.9-1.37h0a.55.55,0,0,1,.37.93h0a.46.46,0,0,1-.47,0,2,2,0,0,0-.83-.24,1.51,1.51,0,0,0-1.51,1.07,25.67,25.67,0,0,0-.57,4.35l-.1.88A22.67,22.67,0,0,0,10.07,12c0,.36.15.83.46.83s.78.1.55.21l-.37.15-1.35.6a.38.38,0,0,1-.54-.36c0-.7.23-3.09.31-3.79A.16.16,0,0,0,9,9.49H5.71a.16.16,0,0,0-.16.16l-.1.39-.1.7A3.7,3.7,0,0,1,5,12.09a2.43,2.43,0,0,1-.88.67c-.08,0,0,.13,0,.13h.21a.48.48,0,0,1,.31.83h0L3,13.62a.47.47,0,0,1-.47-.5.33.33,0,0,1,.36-.33l.39,0a.37.37,0,0,0,.16,0A2,2,0,0,0,4.08,12a8.53,8.53,0,0,0,.33-1.84L4.88,6.1a.32.32,0,0,0-.36-.37c-.81.13-2.47.55-2.47,1.43a1.74,1.74,0,0,0,.13.7.75.75,0,0,1-.2.78H2a.49.49,0,0,1-.83-.36h0A2.73,2.73,0,0,1,2.39,5.86,4.94,4.94,0,0,1,5.63,5Z"/></svg>