<?xml version="1.0" encoding="utf-8"?>
<!-- Generator: Adobe Illustrator 22.1.0, SVG Export Plug-In . SVG Version: 6.00 Build 0)  -->
<svg version="1.1" id="圖層_1" xmlns="http://www.w3.org/2000/svg" xmlns:xlink="http://www.w3.org/1999/xlink" x="0px" y="0px"
	 viewBox="0 0 49 44.4" style="enable-background:new 0 0 49 44.4;" xml:space="preserve">
<style type="text/css">
	.st0{fill:#221D66;}
</style>
<g>
	<path class="st0" d="M17.3,10.1c1,0,1.8,0.9,1.5,1.9c-0.5,2.7-0.9,4.6-1,5.7l-0.6,6.1c0,0.5,0.3,0.9,0.8,0.9h12.4
		c0.4,0,0.8-0.3,0.8-0.6c0.6-3.2,2.2-15.7,4.6-18.8C39.2,1,42.9,0,47,0l0,0c1.8,0,2.7,2.2,1.4,3.6l0,0C47.9,4,47.3,4,46.6,3.7
		c-1-0.5-2.2-0.9-3.2-0.9c-2.8,0-4.8,1.4-5.8,4.1c-1,2.8-1.2,7-2.2,16.8L35,27.1c-0.5,4.4-0.6,7.7-0.6,10.2c0,1.4,0.6,3.2,1.8,3.2
		c0.9,0,3,0.4,2.1,0.8l-1.4,0.6l-5.2,2.3c-1,0.5-2.2-0.3-2.1-1.4c0.1-2.7,0.9-11.9,1.2-14.6c0-0.4-0.3-0.6-0.6-0.6H17.6
		c-0.4,0-0.6,0.3-0.6,0.6l-0.4,1.5l-0.4,2.7c-0.3,2.3-0.8,4-1.5,5.2c-0.6,0.9-1.8,1.8-3.4,2.6c-0.3,0.1-0.1,0.5,0.1,0.5h0.8
		c1.7,0.1,2.3,2.1,1.2,3.2l0,0l-6.3-0.4c-1.2,0-1.8-1-1.8-1.9c0-0.8,0.6-1.3,1.4-1.3l1.5,0.1c0.3,0,0.4,0,0.6-0.1
		c1.2-0.8,1.9-1.8,2.5-3c0.5-1.3,0.9-3.6,1.3-7.1l1.8-15.7c0.1-0.9-0.6-1.5-1.4-1.4c-3.1,0.5-9.5,2.1-9.5,5.5c0,0.9,0.1,1.8,0.5,2.7
		c0.4,1,0,2.2-0.8,3l0,0C2,25.5,0,24.6,0,22.9l0,0c0-4.3,1.5-6.7,4.8-9.3S12,10.1,17.3,10.1L17.3,10.1z"/>
</g>
</svg>
