<?xml version="1.0" encoding="utf-8"?>
<!-- Generator: Adobe Illustrator 22.1.0, SVG Export Plug-In . SVG Version: 6.00 Build 0)  -->
<svg version="1.1"
	 id="svg2" inkscape:export-filename="/home/leon/_DATA/gnu/img/20110914_MickeyMouse_Multi-Touch Interfaces Set/MultiTouch-Interface_Mouse-theme_Spread.png" inkscape:export-xdpi="90" inkscape:export-ydpi="90" inkscape:version="0.48.1 r9760" sodipodi:docname="MultiTouch-Interface_Mouse-theme_Spread.svg" xmlns:cc="http://creativecommons.org/ns#" xmlns:dc="http://purl.org/dc/elements/1.1/" xmlns:inkscape="http://www.inkscape.org/namespaces/inkscape" xmlns:ns1="http://sozi.baierouge.fr" xmlns:rdf="http://www.w3.org/1999/02/22-rdf-syntax-ns#" xmlns:sodipodi="http://sodipodi.sourceforge.net/DTD/sodipodi-0.dtd" xmlns:svg="http://www.w3.org/2000/svg"
	 xmlns="http://www.w3.org/2000/svg" xmlns:xlink="http://www.w3.org/1999/xlink" x="0px" y="0px" viewBox="0 0 30 30"
	 style="enable-background:new 0 0 30 30;" xml:space="preserve">
<style type="text/css">
	.st0{fill:#FFFFFF;stroke:#000000;stroke-linecap:round;stroke-linejoin:round;}
	.st1{fill:none;stroke:#000000;stroke-linecap:round;stroke-linejoin:round;}
</style>
<sodipodi:namedview  bordercolor="#666666" borderopacity="1.0" id="base" inkscape:current-layer="layer1" inkscape:cx="131.45037" inkscape:cy="128.62129" inkscape:document-units="px" inkscape:guide-bbox="true" inkscape:pageopacity="0.0" inkscape:pageshadow="2" inkscape:showpageshadow="false" inkscape:window-height="970" inkscape:window-maximized="1" inkscape:window-width="1280" inkscape:window-x="1280" inkscape:window-y="0" inkscape:zoom="2" pagecolor="#ffffff" showgrid="false" showguides="true">
	</sodipodi:namedview>
<g id="layer1" transform="translate(0 -796.36)" inkscape:groupmode="layer" inkscape:label="Layer 1">
	<g id="g5413" transform="translate(780,-560)">
		<g id="g3915-8-3" transform="matrix(1.2311 0 0 1.2311 -713.75 265.62)">
			<path id="path3894-3-6" inkscape:connector-curvature="0" sodipodi:nodetypes="cssc" class="st0" d="M-31.4,900.9
				c1.3,0.4,1.3,1.6,0.9,2.9c-0.5,1.8-3.5,4.5-5,4.9c-1.4,0.4-2.5,0-2.7-1.2"/>
			<path id="path3112-8-6" inkscape:connector-curvature="0" sodipodi:nodetypes="ssssssccsscs" class="st0" d="M-49.5,908.6
				c0.7,2.4,4.4-0.3,5.3-1.1c1.2-1,5.6,0.4,8-1c1.6-1,4.5-3.8,4.8-5.7c0.4-3.2-0.3-5.8-1.9-8.4c-0.6-0.9-1.3-1.9-2-2.5
				c-3.1-2.5-4.7-0.8-5.5-0.2c-1.6-0.9-3.8-0.4-5.2,2c-1.5-1.6-2.3-2.6-3.6-4.3c-2.1-2.8-5.4,2.4-1.7,6.4c1.9,2,5.8,4.6,7.2,8.4
				C-48,902.7-50.8,904.2-49.5,908.6L-49.5,908.6z"/>
			<path id="path3882-8-1" inkscape:connector-curvature="0" sodipodi:nodetypes="cccc" d="M-46.4,892c1.4,1.5,2.6,2.5,4.5,2.8
				c-1.2-0.6-3.1-2.4-4.2-3.7L-46.4,892z"/>
			<path id="path3884-7-6" inkscape:connector-curvature="0" sodipodi:nodetypes="cccc" d="M-40.9,889.3l-0.3,0.8
				c1,0.5,2.1,1.2,3,1.2C-38.7,891-40.1,889.8-40.9,889.3L-40.9,889.3z"/>
			<path id="path3886-1-1" inkscape:connector-curvature="0" sodipodi:nodetypes="cc" class="st1" d="M-33.2,900.7
				c-0.6-2.1-0.9-2.6-1.4-3.5"/>
			<path id="path3888-9-0" inkscape:connector-curvature="0" sodipodi:nodetypes="cc" class="st1" d="M-34.5,902.1
				c-1.2-2.1-1.9-3-2.8-4.3"/>
			<path id="path3890-3-1" inkscape:connector-curvature="0" sodipodi:nodetypes="cc" class="st1" d="M-36.1,903.7
				c-1-1.3-1.5-1.8-2.2-2.6"/>
		</g>
	</g>
</g>
</svg>
