<?xml version="1.0" encoding="utf-8"?>
<!-- Generator: Adobe Illustrator 22.1.0, SVG Export Plug-In . SVG Version: 6.00 Build 0)  -->
<svg version="1.1"
	 id="svg2" inkscape:export-filename="/home/leon/_DATA/gnu/img/20110914_MickeyMouse_Multi-Touch Interfaces Set/MultiTouch-Interface_Mouse-theme_Spread.png" inkscape:export-xdpi="90" inkscape:export-ydpi="90" inkscape:version="0.48.1 r9760" sodipodi:docname="MultiTouch-Interface_Mouse-theme_Spread.svg" xmlns:cc="http://creativecommons.org/ns#" xmlns:dc="http://purl.org/dc/elements/1.1/" xmlns:inkscape="http://www.inkscape.org/namespaces/inkscape" xmlns:ns1="http://sozi.baierouge.fr" xmlns:rdf="http://www.w3.org/1999/02/22-rdf-syntax-ns#" xmlns:sodipodi="http://sodipodi.sourceforge.net/DTD/sodipodi-0.dtd" xmlns:svg="http://www.w3.org/2000/svg"
	 xmlns="http://www.w3.org/2000/svg" xmlns:xlink="http://www.w3.org/1999/xlink" x="0px" y="0px" viewBox="0 0 40 40"
	 style="enable-background:new 0 0 40 40;" xml:space="preserve">
<style type="text/css">
	.st0{fill:#FFFFFF;stroke:#000000;stroke-linecap:round;stroke-linejoin:round;}
	.st1{fill:none;stroke:#000000;stroke-linecap:round;stroke-linejoin:round;}
</style>
<sodipodi:namedview  bordercolor="#666666" borderopacity="1.0" id="base" inkscape:current-layer="layer1" inkscape:cx="131.45037" inkscape:cy="128.62129" inkscape:document-units="px" inkscape:guide-bbox="true" inkscape:pageopacity="0.0" inkscape:pageshadow="2" inkscape:showpageshadow="false" inkscape:window-height="970" inkscape:window-maximized="1" inkscape:window-width="1280" inkscape:window-x="1280" inkscape:window-y="0" inkscape:zoom="2" pagecolor="#ffffff" showgrid="false" showguides="true">
	</sodipodi:namedview>
<g id="layer1" transform="translate(0 -796.36)" inkscape:groupmode="layer" inkscape:label="Layer 1">
	<g id="g5413" transform="translate(780,-560)">
		<g id="g3915-8-3" transform="matrix(1.2311 0 0 1.2311 -713.75 265.62)">
			<path id="path3894-3-6" inkscape:connector-curvature="0" sodipodi:nodetypes="cssc" class="st0" d="M-23.3,906.2
				c1.8,0.6,1.8,2.2,1.3,4c-0.7,2.5-4.9,6.3-7,6.8c-2,0.6-3.5,0-3.8-1.7"/>
			<path id="path3112-8-6" inkscape:connector-curvature="0" sodipodi:nodetypes="ssssssccsscs" class="st0" d="M-48.6,916.9
				c1,3.3,6.1-0.4,7.4-1.5c1.7-1.4,7.8,0.6,11.2-1.4c2.2-1.4,6.3-5.3,6.7-8c0.6-4.5-0.4-8.1-2.7-11.7c-0.8-1.3-1.8-2.7-2.8-3.5
				c-4.3-3.5-6.6-1.1-7.7-0.3c-2.2-1.3-5.3-0.6-7.3,2.8c-2.1-2.2-3.2-3.6-5-6c-2.9-3.9-7.5,3.3-2.4,8.9c2.7,2.8,8.1,6.4,10,11.7
				C-46.5,908.7-50.4,910.8-48.6,916.9L-48.6,916.9z"/>
			<path id="path3882-8-1" inkscape:connector-curvature="0" sodipodi:nodetypes="cccc" d="M-44.2,893.7c2,2.1,3.6,3.5,6.3,3.9
				c-1.7-0.8-4.3-3.3-5.9-5.2L-44.2,893.7z"/>
			<path id="path3884-7-6" inkscape:connector-curvature="0" sodipodi:nodetypes="cccc" d="M-36.6,890l-0.4,1.1
				c1.4,0.7,2.9,1.7,4.2,1.7C-33.5,892.3-35.4,890.7-36.6,890L-36.6,890z"/>
			<path id="path3886-1-1" inkscape:connector-curvature="0" sodipodi:nodetypes="cc" class="st1" d="M-25.8,905.9
				c-0.8-2.9-1.3-3.6-2-4.9"/>
			<path id="path3888-9-0" inkscape:connector-curvature="0" sodipodi:nodetypes="cc" class="st1" d="M-27.6,907.8
				c-1.7-2.9-2.7-4.2-3.9-6"/>
			<path id="path3890-3-1" inkscape:connector-curvature="0" sodipodi:nodetypes="cc" class="st1" d="M-29.9,910.1
				c-1.4-1.8-2.1-2.5-3.1-3.6"/>
		</g>
	</g>
</g>
</svg>
